{
    "asset": {
        "generator": "FBX2glTF",
        "version": "2.0"
    },
    "scene": 0,
    "buffers": [
        {
            "byteLength": 7824,
            "uri": "buffer.bin"
        }
    ],
    "bufferViews": [
        {
            "buffer": 0,
            "byteLength": 1200,
            "byteOffset": 0,
            "target": 34963
        },
        {
            "buffer": 0,
            "byteLength": 1452,
            "byteOffset": 1200,
            "target": 34962
        },
        {
            "buffer": 0,
            "byteLength": 1452,
            "byteOffset": 2652,
            "target": 34962
        },
        {
            "buffer": 0,
            "byteLength": 1936,
            "byteOffset": 4104,
            "target": 34962
        },
        {
            "buffer": 0,
            "byteLength": 968,
            "byteOffset": 6040,
            "target": 34962
        },
        {
            "buffer": 0,
            "byteLength": 12,
            "byteOffset": 7008,
            "target": 34963
        },
        {
            "buffer": 0,
            "byteLength": 48,
            "byteOffset": 7020,
            "target": 34962
        },
        {
            "buffer": 0,
            "byteLength": 48,
            "byteOffset": 7068,
            "target": 34962
        },
        {
            "buffer": 0,
            "byteLength": 64,
            "byteOffset": 7116,
            "target": 34962
        },
        {
            "buffer": 0,
            "byteLength": 32,
            "byteOffset": 7180,
            "target": 34962
        },
        {
            "buffer": 0,
            "byteLength": 12,
            "byteOffset": 7212,
            "target": 34963
        },
        {
            "buffer": 0,
            "byteLength": 48,
            "byteOffset": 7224,
            "target": 34962
        },
        {
            "buffer": 0,
            "byteLength": 48,
            "byteOffset": 7272,
            "target": 34962
        },
        {
            "buffer": 0,
            "byteLength": 64,
            "byteOffset": 7320,
            "target": 34962
        },
        {
            "buffer": 0,
            "byteLength": 32,
            "byteOffset": 7384,
            "target": 34962
        },
        {
            "buffer": 0,
            "byteLength": 12,
            "byteOffset": 7416,
            "target": 34963
        },
        {
            "buffer": 0,
            "byteLength": 48,
            "byteOffset": 7428,
            "target": 34962
        },
        {
            "buffer": 0,
            "byteLength": 48,
            "byteOffset": 7476,
            "target": 34962
        },
        {
            "buffer": 0,
            "byteLength": 64,
            "byteOffset": 7524,
            "target": 34962
        },
        {
            "buffer": 0,
            "byteLength": 32,
            "byteOffset": 7588,
            "target": 34962
        },
        {
            "buffer": 0,
            "byteLength": 12,
            "byteOffset": 7620,
            "target": 34963
        },
        {
            "buffer": 0,
            "byteLength": 48,
            "byteOffset": 7632,
            "target": 34962
        },
        {
            "buffer": 0,
            "byteLength": 48,
            "byteOffset": 7680,
            "target": 34962
        },
        {
            "buffer": 0,
            "byteLength": 64,
            "byteOffset": 7728,
            "target": 34962
        },
        {
            "buffer": 0,
            "byteLength": 32,
            "byteOffset": 7792,
            "target": 34962
        }
    ],
    "scenes": [
        {
            "name": "Root Scene",
            "nodes": [
                0
            ]
        }
    ],
    "accessors": [
        {
            "componentType": 5123,
            "type": "SCALAR",
            "count": 600,
            "bufferView": 0,
            "byteOffset": 0
        },
        {
            "componentType": 5126,
            "type": "VEC3",
            "count": 121,
            "bufferView": 1,
            "byteOffset": 0,
            "min": [
                -5.0,
                -1.11022302462516e-16,
                -5.0
            ],
            "max": [
                5.0,
                1.11022302462516e-16,
                5.0
            ]
        },
        {
            "componentType": 5126,
            "type": "VEC3",
            "count": 121,
            "bufferView": 2,
            "byteOffset": 0
        },
        {
            "componentType": 5126,
            "type": "VEC4",
            "count": 121,
            "bufferView": 3,
            "byteOffset": 0
        },
        {
            "componentType": 5126,
            "type": "VEC2",
            "count": 121,
            "bufferView": 4,
            "byteOffset": 0
        },
        {
            "componentType": 5123,
            "type": "SCALAR",
            "count": 6,
            "bufferView": 5,
            "byteOffset": 0
        },
        {
            "componentType": 5126,
            "type": "VEC3",
            "count": 4,
            "bufferView": 6,
            "byteOffset": 0,
            "min": [
                -0.5,
                -0.5,
                -3.06161680059067e-17
            ],
            "max": [
                0.5,
                0.5,
                3.06161680059067e-17
            ]
        },
        {
            "componentType": 5126,
            "type": "VEC3",
            "count": 4,
            "bufferView": 7,
            "byteOffset": 0
        },
        {
            "componentType": 5126,
            "type": "VEC4",
            "count": 4,
            "bufferView": 8,
            "byteOffset": 0
        },
        {
            "componentType": 5126,
            "type": "VEC2",
            "count": 4,
            "bufferView": 9,
            "byteOffset": 0
        },
        {
            "componentType": 5123,
            "type": "SCALAR",
            "count": 6,
            "bufferView": 10,
            "byteOffset": 0
        },
        {
            "componentType": 5126,
            "type": "VEC3",
            "count": 4,
            "bufferView": 11,
            "byteOffset": 0,
            "min": [
                -0.5,
                -0.5,
                -3.06161680059067e-17
            ],
            "max": [
                0.5,
                0.5,
                3.06161680059067e-17
            ]
        },
        {
            "componentType": 5126,
            "type": "VEC3",
            "count": 4,
            "bufferView": 12,
            "byteOffset": 0
        },
        {
            "componentType": 5126,
            "type": "VEC4",
            "count": 4,
            "bufferView": 13,
            "byteOffset": 0
        },
        {
            "componentType": 5126,
            "type": "VEC2",
            "count": 4,
            "bufferView": 14,
            "byteOffset": 0
        },
        {
            "componentType": 5123,
            "type": "SCALAR",
            "count": 6,
            "bufferView": 15,
            "byteOffset": 0
        },
        {
            "componentType": 5126,
            "type": "VEC3",
            "count": 4,
            "bufferView": 16,
            "byteOffset": 0,
            "min": [
                -0.5,
                -0.5,
                -3.06161680059067e-17
            ],
            "max": [
                0.5,
                0.5,
                3.06161680059067e-17
            ]
        },
        {
            "componentType": 5126,
            "type": "VEC3",
            "count": 4,
            "bufferView": 17,
            "byteOffset": 0
        },
        {
            "componentType": 5126,
            "type": "VEC4",
            "count": 4,
            "bufferView": 18,
            "byteOffset": 0
        },
        {
            "componentType": 5126,
            "type": "VEC2",
            "count": 4,
            "bufferView": 19,
            "byteOffset": 0
        },
        {
            "componentType": 5123,
            "type": "SCALAR",
            "count": 6,
            "bufferView": 20,
            "byteOffset": 0
        },
        {
            "componentType": 5126,
            "type": "VEC3",
            "count": 4,
            "bufferView": 21,
            "byteOffset": 0,
            "min": [
                -0.5,
                -0.5,
                -3.06161680059067e-17
            ],
            "max": [
                0.5,
                0.5,
                3.06161680059067e-17
            ]
        },
        {
            "componentType": 5126,
            "type": "VEC3",
            "count": 4,
            "bufferView": 22,
            "byteOffset": 0
        },
        {
            "componentType": 5126,
            "type": "VEC4",
            "count": 4,
            "bufferView": 23,
            "byteOffset": 0
        },
        {
            "componentType": 5126,
            "type": "VEC2",
            "count": 4,
            "bufferView": 24,
            "byteOffset": 0
        }
    ],
    "samplers": [
        {}
    ],
    "materials": [
        {
            "name": "New_Material",
            "alphaMode": "OPAQUE",
            "extras": {
                "fromFBX": {
                    "shadingModel": "Lambert",
                    "isTruePBR": false
                }
            },
            "pbrMetallicRoughness": {
                "baseColorFactor": [
                    0.448529422283173,
                    0.448529422283173,
                    0.448529422283173,
                    1.0
                ],
                "metallicFactor": 0.200000002980232,
                "roughnessFactor": 0.800000011920929
            }
        },
        {
            "name": "Message",
            "alphaMode": "OPAQUE",
            "extras": {
                "fromFBX": {
                    "shadingModel": "Lambert",
                    "isTruePBR": false
                }
            },
            "pbrMetallicRoughness": {
                "baseColorFactor": [
                    1.0,
                    1.0,
                    1.0,
                    1.0
                ],
                "metallicFactor": 0.200000002980232,
                "roughnessFactor": 0.800000011920929
            }
        }
    ],
    "meshes": [
        {
            "name": "Plane",
            "primitives": [
                {
                    "material": 0,
                    "mode": 4,
                    "attributes": {
                        "NORMAL": 2,
                        "POSITION": 1,
                        "TANGENT": 3,
                        "TEXCOORD_0": 4
                    },
                    "indices": 0
                }
            ]
        },
        {
            "name": "Message1",
            "primitives": [
                {
                    "material": 1,
                    "mode": 4,
                    "attributes": {
                        "NORMAL": 7,
                        "POSITION": 6,
                        "TANGENT": 8,
                        "TEXCOORD_0": 9
                    },
                    "indices": 5
                }
            ]
        },
        {
            "name": "Message2",
            "primitives": [
                {
                    "material": 1,
                    "mode": 4,
                    "attributes": {
                        "NORMAL": 12,
                        "POSITION": 11,
                        "TANGENT": 13,
                        "TEXCOORD_0": 14
                    },
                    "indices": 10
                }
            ]
        },
        {
            "name": "Message3",
            "primitives": [
                {
                    "material": 1,
                    "mode": 4,
                    "attributes": {
                        "NORMAL": 17,
                        "POSITION": 16,
                        "TANGENT": 18,
                        "TEXCOORD_0": 19
                    },
                    "indices": 15
                }
            ]
        },
        {
            "name": "Message4",
            "primitives": [
                {
                    "material": 1,
                    "mode": 4,
                    "attributes": {
                        "NORMAL": 22,
                        "POSITION": 21,
                        "TANGENT": 23,
                        "TEXCOORD_0": 24
                    },
                    "indices": 20
                }
            ]
        }
    ],
    "nodes": [
        {
            "name": "RootNode",
            "translation": [
                0.0,
                0.0,
                0.0
            ],
            "rotation": [
                0.0,
                0.0,
                0.0,
                1.0
            ],
            "scale": [
                1.0,
                1.0,
                1.0
            ],
            "children": [
                1
            ]
        },
        {
            "name": "loading",
            "translation": [
                0.0,
                0.0,
                0.0
            ],
            "rotation": [
                0.0,
                0.0,
                0.0,
                1.0
            ],
            "scale": [
                1.0,
                1.0,
                1.0
            ],
            "children": [
                2
            ]
        },
        {
            "name": "Plane",
            "translation": [
                0.0,
                0.0,
                0.0
            ],
            "rotation": [
                0.0,
                0.0,
                0.0,
                1.0
            ],
            "scale": [
                5000.0,
                1.0,
                5000.0
            ],
            "children": [
                3,
                4,
                5,
                6
            ],
            "mesh": 0
        },
        {
            "name": "Message1",
            "translation": [
                -0.000213999999687076,
                2.60999989509583,
                0.000890400027856231
            ],
            "rotation": [
                0.0,
                0.0,
                0.0,
                1.0
            ],
            "scale": [
                0.000999999931082129,
                3.0,
                0.000199999994947575
            ],
            "mesh": 1
        },
        {
            "name": "Message2",
            "translation": [
                -0.000213999999687076,
                2.52300000190735,
                -0.00109699997119606
            ],
            "rotation": [
                -6.12323426292584e-17,
                1.0,
                6.12323426292584e-17,
                -3.74939939305299e-33
            ],
            "scale": [
                0.000999999931082129,
                3.0,
                0.000199999994947575
            ],
            "mesh": 2
        },
        {
            "name": "Message3",
            "translation": [
                -0.00133079988881946,
                3.59299969673157,
                7.15999995009042e-05
            ],
            "rotation": [
                -0.0,
                -0.70710676908493,
                0.0,
                0.70710676908493
            ],
            "scale": [
                0.00100000039674342,
                3.0,
                0.000200000096810982
            ],
            "mesh": 3
        },
        {
            "name": "Message4",
            "translation": [
                0.00124999997206032,
                2.65999984741211,
                7.20000025467016e-05
            ],
            "rotation": [
                -0.0,
                0.70710676908493,
                0.0,
                0.70710676908493
            ],
            "scale": [
                0.00100000074598938,
                3.0,
                0.000200000184122473
            ],
            "mesh": 4
        }
    ]
}